<svg width="222" height="75" viewBox="0 0 222 75" fill="none" xmlns="http://www.w3.org/2000/svg">
<path d="M221.002 37.789C221.002 37.789 213.085 20.2477 161.948 20.9415C161.948 20.9415 111.009 -30.1957 7.9417 27.3501C7.9417 27.3501 10.1991 38.5598 1.70922 38.5598C-0.0416068 46.9836 -1.83647 58.0391 3.94454 63.8201C16.5637 63.8201 17.7859 63.8201 17.885 63.8201C17.5767 62.4657 17.4005 61.0672 17.4005 59.6247C17.4005 49.1528 25.8904 40.663 36.3623 40.663C46.8342 40.663 55.324 49.1528 55.324 59.6247C55.324 61.0672 55.1478 62.4657 54.8395 63.8201H57.7906H149.813H162.135C161.838 62.4657 161.662 61.0672 161.662 59.6247C161.662 49.1528 170.152 40.663 180.612 40.663C194.894 40.663 203.043 55.1761 201.6 63.699L221.002 61.6949C218.04 44.2307 221.002 37.789 221.002 37.789ZM76.3779 23.8375H31.1539C31.1539 23.8375 49.9064 15.0503 76.3779 9.95204V23.8375ZM86.1891 23.8375V8.33335C124.091 2.84965 153.833 23.8375 153.833 23.8375H86.1891V23.8375Z" fill="#030104"/>
<path d="M180.612 44.8364C172.53 44.8364 165.967 51.3882 165.967 59.4816C165.967 67.553 172.53 74.1158 180.612 74.1158C188.695 74.1158 197.284 67.553 197.284 59.4816C197.284 51.3772 188.706 44.8364 180.612 44.8364ZM180.612 65.0975C177.496 65.0975 174.975 62.5758 174.975 59.4706C174.975 56.3654 177.496 53.8327 180.612 53.8327C183.707 53.8327 186.25 56.3544 186.25 59.4706C186.25 62.5758 183.707 65.0975 180.612 65.0975Z" fill="#030104"/>
<path d="M35.9879 44.8364C27.9055 44.8364 21.3537 51.3882 21.3537 59.4816C21.3537 67.553 27.9055 74.1158 35.9879 74.1158C44.0813 74.1158 50.6331 67.553 50.6331 59.4816C50.6221 51.3772 44.0813 44.8364 35.9879 44.8364ZM35.9879 65.0975C32.8827 65.0975 30.35 62.5758 30.35 59.4706C30.35 56.3654 32.8827 53.8327 35.9879 53.8327C39.0931 53.8327 41.6258 56.3544 41.6258 59.4706C41.6258 62.5758 39.0931 65.0975 35.9879 65.0975Z" fill="#030104"/>
</svg>
